HIERARCHY
ROOT Hips
{
	OFFSET 0.000000 71.427986 0.000000
	CHANNELS 6 Xposition Yposition Zposition Xrotation Yrotation Zrotation
	JOINT Pelvis
	{
		OFFSET 0.000000 0.000000 0.000000
		CHANNELS 3 Xrotation Yrotation Zrotation
		JOINT LeftUpLeg
		{
			OFFSET 6.797100 -2.508499 -1.318700
			CHANNELS 3 Xrotation Yrotation Zrotation
			JOINT LeftLeg
			{
				OFFSET 0.069008 -29.241863 0.690200
				CHANNELS 3 Xrotation Yrotation Zrotation
				JOINT LeftFoot
				{
					OFFSET -0.069008 -29.568123 -0.266800
					CHANNELS 3 Xrotation Yrotation Zrotation
					JOINT LeftToeBase
					{
						OFFSET 3.145500 -8.631000 16.059900
						CHANNELS 3 Xrotation Yrotation Zrotation
						End Site
						{
							OFFSET 0.000000 18.501587 0.000000
						}
					}
				}
			}
			JOINT Left_ShortSleeve
			{
				OFFSET 0.265923 -10.480953 1.153800
				CHANNELS 3 Xrotation Yrotation Zrotation
				End Site
				{
					OFFSET 1.725763 19.823879 0.000000
				}
			}
		}
		JOINT RightUpLeg
		{
			OFFSET -6.797100 -2.508499 -1.318700
			CHANNELS 3 Xrotation Yrotation Zrotation
			JOINT RightLeg
			{
				OFFSET -0.082453 -29.241932 0.688000
				CHANNELS 3 Xrotation Yrotation Zrotation
				JOINT RightFoot
				{
					OFFSET 0.082453 -29.568058 -0.264600
					CHANNELS 3 Xrotation Yrotation Zrotation
					JOINT RightToeBase
					{
						OFFSET -3.115300 -8.682800 16.113400
						CHANNELS 3 Xrotation Yrotation Zrotation
						End Site
						{
							OFFSET 0.000000 18.567114 0.000000
						}
					}
				}
			}
			JOINT Right_ShortSleeve
			{
				OFFSET -0.265923 -10.480953 1.153800
				CHANNELS 3 Xrotation Yrotation Zrotation
				End Site
				{
					OFFSET -1.725766 19.823910 0.000000
				}
			}
		}
	}
	JOINT Spine
	{
		OFFSET 0.000000 13.368103 0.470500
		CHANNELS 3 Xrotation Yrotation Zrotation
		JOINT Spine1
		{
			OFFSET 0.147000 13.837402 0.538800
			CHANNELS 3 Xrotation Yrotation Zrotation
			JOINT Spine2
			{
				OFFSET 0.168000 16.242897 -1.435500
				CHANNELS 3 Xrotation Yrotation Zrotation
				JOINT Neck
				{
					OFFSET 0.217200 18.631500 -1.679100
					CHANNELS 3 Xrotation Yrotation Zrotation
					JOINT Head
					{
						OFFSET 0.000000 6.599396 1.385900
						CHANNELS 3 Xrotation Yrotation Zrotation
						JOINT Hat
						{
							OFFSET -0.532200 27.220596 -10.096100
							CHANNELS 3 Xrotation Yrotation Zrotation
							End Site
							{
								OFFSET 0.000000 22.029861 0.000000
							}
						}
						JOINT HairD
						{
							OFFSET -10.777400 17.437393 -1.325900
							CHANNELS 3 Xrotation Yrotation Zrotation
							JOINT HairD1
							{
								OFFSET -3.290299 -11.051193 1.062200
								CHANNELS 3 Xrotation Yrotation Zrotation
								End Site
								{
									OFFSET 0.000000 11.579437 0.000000
								}
							}
						}
						JOINT HairB
						{
							OFFSET -10.777400 17.437393 1.467900
							CHANNELS 3 Xrotation Yrotation Zrotation
							JOINT HairB1
							{
								OFFSET -1.561200 -12.956299 3.590200
								CHANNELS 3 Xrotation Yrotation Zrotation
								End Site
								{
									OFFSET 0.000000 13.534866 0.000000
								}
							}
						}
						JOINT HairA
						{
							OFFSET 9.713100 17.437393 1.467900
							CHANNELS 3 Xrotation Yrotation Zrotation
							JOINT HairA1
							{
								OFFSET 1.561200 -12.956299 3.590200
								CHANNELS 3 Xrotation Yrotation Zrotation
								End Site
								{
									OFFSET 0.000000 13.534866 0.000000
								}
							}
						}
						JOINT HairC
						{
							OFFSET 9.713100 17.437393 -1.325900
							CHANNELS 3 Xrotation Yrotation Zrotation
							JOINT HairC1
							{
								OFFSET 3.290300 -11.051193 1.062200
								CHANNELS 3 Xrotation Yrotation Zrotation
								End Site
								{
									OFFSET 0.000000 11.579437 0.000000
								}
							}
						}
					}
				}
				JOINT LeftShoulder
				{
					OFFSET 5.101800 15.108002 -2.763700
					CHANNELS 3 Xrotation Yrotation Zrotation
					JOINT LeftArm
					{
						OFFSET 9.825497 2.506317 -1.597400
						CHANNELS 3 Xrotation Yrotation Zrotation
						JOINT LeftForeArm
						{
							OFFSET 21.966244 0.000000 0.000000
							CHANNELS 3 Xrotation Yrotation Zrotation
							JOINT LeftHand
							{
								OFFSET 33.879036 0.000000 0.000000
								CHANNELS 3 Xrotation Yrotation Zrotation
								JOINT LeftHandThumb1
								{
									OFFSET 6.715286 -2.359680 3.363841
									CHANNELS 3 Xrotation Yrotation Zrotation
									JOINT LeftHandThumb2
									{
										OFFSET 2.507072 -1.447464 1.447461
										CHANNELS 3 Xrotation Yrotation Zrotation
										JOINT LeftHandThumb3
										{
											OFFSET 2.898338 -1.673355 1.673357
											CHANNELS 3 Xrotation Yrotation Zrotation
											End Site
											{
												OFFSET -0.295959 3.727692 -0.131651
											}
										}
									}
								}
								JOINT LeftHandIndex1
								{
									OFFSET 14.190811 -0.254547 3.840278
									CHANNELS 3 Xrotation Yrotation Zrotation
									JOINT LeftHandIndex2
									{
										OFFSET 3.551727 0.000000 -0.000000
										CHANNELS 3 Xrotation Yrotation Zrotation
										JOINT LeftHandIndex3
										{
											OFFSET 2.894196 0.000000 0.000000
											CHANNELS 3 Xrotation Yrotation Zrotation
											End Site
											{
												OFFSET -1.000603 2.690872 0.366626
											}
										}
									}
								}
								JOINT LeftHandMiddle1
								{
									OFFSET 13.776489 0.000000 0.000000
									CHANNELS 3 Xrotation Yrotation Zrotation
									JOINT LeftHandMiddle2
									{
										OFFSET 3.438232 0.000000 0.000000
										CHANNELS 3 Xrotation Yrotation Zrotation
										JOINT LeftHandMiddle3
										{
											OFFSET 3.691551 0.000000 0.000000
											CHANNELS 3 Xrotation Yrotation Zrotation
											End Site
											{
												OFFSET -1.082298 3.499527 0.457670
											}
										}
									}
								}
								JOINT LeftHandRing1
								{
									OFFSET 13.966164 -0.268127 -3.067488
									CHANNELS 3 Xrotation Yrotation Zrotation
									JOINT LeftHandRing2
									{
										OFFSET 3.162567 0.000000 0.000000
										CHANNELS 3 Xrotation Yrotation Zrotation
										JOINT LeftHandRing3
										{
											OFFSET 3.324348 0.000000 0.000000
											CHANNELS 3 Xrotation Yrotation Zrotation
											End Site
											{
												OFFSET -0.861900 3.184998 0.405154
											}
										}
									}
								}
								JOINT LeftHandPinky1
								{
									OFFSET 13.131393 -0.168503 -5.746925
									CHANNELS 3 Xrotation Yrotation Zrotation
									JOINT LeftHandPinky2
									{
										OFFSET 2.849182 0.000000 0.000000
										CHANNELS 3 Xrotation Yrotation Zrotation
										JOINT LeftHandPinky3
										{
											OFFSET 2.805038 0.000000 0.000000
											CHANNELS 3 Xrotation Yrotation Zrotation
											End Site
											{
												OFFSET -0.882500 2.642609 0.325652
											}
										}
									}
								}
							}
							JOINT Left_Sleeve
							{
								OFFSET 6.592125 -0.646545 0.805568
								CHANNELS 3 Xrotation Yrotation Zrotation
								End Site
								{
									OFFSET -0.000179 20.275787 -0.000000
								}
							}
						}
					}
				}
				JOINT RightShoulder
				{
					OFFSET -5.731700 15.108002 -2.763700
					CHANNELS 3 Xrotation Yrotation Zrotation
					JOINT RightArm
					{
						OFFSET -9.825497 2.506317 -1.597400
						CHANNELS 3 Xrotation Yrotation Zrotation
						JOINT RightForeArm
						{
							OFFSET -21.966242 0.000000 0.000000
							CHANNELS 3 Xrotation Yrotation Zrotation
							JOINT RightHand
							{
								OFFSET -33.879032 0.000000 0.000000
								CHANNELS 3 Xrotation Yrotation Zrotation
								JOINT RightHandThumb1
								{
									OFFSET -6.715286 -2.359680 3.363841
									CHANNELS 3 Xrotation Yrotation Zrotation
									JOINT RightHandThumb2
									{
										OFFSET -2.507072 -1.447464 1.447461
										CHANNELS 3 Xrotation Yrotation Zrotation
										JOINT RightHandThumb3
										{
											OFFSET -2.898338 -1.673355 1.673357
											CHANNELS 3 Xrotation Yrotation Zrotation
											End Site
											{
												OFFSET 0.295959 3.727692 -0.131651
											}
										}
									}
								}
								JOINT RightHandIndex1
								{
									OFFSET -14.190811 -0.254547 3.840278
									CHANNELS 3 Xrotation Yrotation Zrotation
									JOINT RightHandIndex2
									{
										OFFSET -3.551727 0.000000 -0.000000
										CHANNELS 3 Xrotation Yrotation Zrotation
										JOINT RightHandIndex3
										{
											OFFSET -2.894196 0.000000 0.000000
											CHANNELS 3 Xrotation Yrotation Zrotation
											End Site
											{
												OFFSET 1.000603 2.690872 0.366626
											}
										}
									}
								}
								JOINT RightHandMiddle1
								{
									OFFSET -13.776489 0.000000 0.000000
									CHANNELS 3 Xrotation Yrotation Zrotation
									JOINT RightHandMiddle2
									{
										OFFSET -3.438232 0.000000 0.000000
										CHANNELS 3 Xrotation Yrotation Zrotation
										JOINT RightHandMiddle3
										{
											OFFSET -3.691551 0.000000 0.000000
											CHANNELS 3 Xrotation Yrotation Zrotation
											End Site
											{
												OFFSET 1.082298 3.499527 0.457670
											}
										}
									}
								}
								JOINT RightHandRing1
								{
									OFFSET -13.966164 -0.268127 -3.067488
									CHANNELS 3 Xrotation Yrotation Zrotation
									JOINT RightHandRing2
									{
										OFFSET -3.162567 0.000000 0.000000
										CHANNELS 3 Xrotation Yrotation Zrotation
										JOINT RightHandRing3
										{
											OFFSET -3.324348 0.000000 0.000000
											CHANNELS 3 Xrotation Yrotation Zrotation
											End Site
											{
												OFFSET 0.861900 3.184998 0.405154
											}
										}
									}
								}
								JOINT RightHandPinky1
								{
									OFFSET -13.131393 -0.168503 -5.746925
									CHANNELS 3 Xrotation Yrotation Zrotation
									JOINT RightHandPinky2
									{
										OFFSET -2.849182 0.000000 0.000000
										CHANNELS 3 Xrotation Yrotation Zrotation
										JOINT RightHandPinky3
										{
											OFFSET -2.805038 0.000000 0.000000
											CHANNELS 3 Xrotation Yrotation Zrotation
											End Site
											{
												OFFSET 0.882500 2.642609 0.325652
											}
										}
									}
								}
							}
							JOINT Right_Sleeve
							{
								OFFSET -6.592125 -0.646545 0.805568
								CHANNELS 3 Xrotation Yrotation Zrotation
								End Site
								{
									OFFSET 0.000179 20.275787 -0.000000
								}
							}
						}
					}
				}
				JOINT Bind_Right_JacketString
				{
					OFFSET -3.534800 11.969597 7.200700
					CHANNELS 3 Xrotation Yrotation Zrotation
					JOINT Bind_Right_JacketString1
					{
						OFFSET -0.319900 -6.102600 2.794100
						CHANNELS 3 Xrotation Yrotation Zrotation
						End Site
						{
							OFFSET 0.000000 6.719452 0.000000
						}
					}
				}
				JOINT Bind_Left_JacketString
				{
					OFFSET 2.904800 11.969597 7.200700
					CHANNELS 3 Xrotation Yrotation Zrotation
					JOINT Bind_Left_JacketString1
					{
						OFFSET 0.364800 -5.904503 3.186800
						CHANNELS 3 Xrotation Yrotation Zrotation
						End Site
						{
							OFFSET 0.000000 6.719513 0.000000
						}
					}
				}
				JOINT HairE
				{
					OFFSET 5.915200 17.612701 -11.592200
					CHANNELS 3 Xrotation Yrotation Zrotation
					JOINT HairE1
					{
						OFFSET 0.289200 -7.171898 -1.284500
						CHANNELS 3 Xrotation Yrotation Zrotation
						End Site
						{
							OFFSET 0.000000 7.291756 0.000000
						}
					}
				}
				JOINT HairF
				{
					OFFSET -0.864800 17.612701 -11.592200
					CHANNELS 3 Xrotation Yrotation Zrotation
					JOINT HairF1
					{
						OFFSET 0.000000 -14.087097 -2.127501
						CHANNELS 3 Xrotation Yrotation Zrotation
						End Site
						{
							OFFSET 0.000000 14.246841 0.000000
						}
					}
				}
				JOINT HairG
				{
					OFFSET -8.087700 17.612701 -11.592200
					CHANNELS 3 Xrotation Yrotation Zrotation
					JOINT HairG1
					{
						OFFSET -0.293600 -6.081398 -0.910100
						CHANNELS 3 Xrotation Yrotation Zrotation
						End Site
						{
							OFFSET 0.000000 6.156120 0.000000
						}
					}
				}
			}
		}
	}
	JOINT Pouch
	{
		OFFSET 0.000000 4.394501 10.847300
		CHANNELS 3 Xrotation Yrotation Zrotation
		End Site
		{
			OFFSET 0.000000 21.880577 0.000000
		}
	}
	JOINT Bag
	{
		OFFSET -13.229000 4.813004 -0.593300
		CHANNELS 3 Xrotation Yrotation Zrotation
		End Site
		{
			OFFSET 0.000000 21.880577 0.000000
		}
	}
	JOINT OccupyGuyFacialAnim_Joint
	{
		OFFSET 1.000000 -70.206398 -1.655000
		CHANNELS 3 Xrotation Yrotation Zrotation
		End Site
		{
			OFFSET 0.000000 21.880577 0.000000
		}
	}
}
MOTION
Frames: 4
Frame Time: 0.033333
-18.797428 56.831314 33.190372 -1.466501 32.201238 0.133617 -0.000000 -0.000000 -0.000000 -46.618476 3.354300 25.973036 71.371461 -8.598637 2.397760 -27.402401 -15.812672 -13.580774 -0.000000 0.000000 -0.000000 0.000002 0.000001 0.000002 -35.713638 -13.198935 -37.562069 72.142084 -4.173287 2.119545 -28.020704 -5.716789 18.883861 0.000000 -0.000000 0.000000 -0.000000 0.000000 -0.000000 12.559600 12.041416 7.520959 3.420812 3.235092 2.255842 3.366522 3.297314 2.247148 10.373484 -10.530474 6.970165 -24.756943 -46.149864 -13.569748 0.000001 0.000000 0.000000 0.000001 0.000000 0.000000 0.000001 0.000000 0.000000 0.000001 0.000000 0.000000 -0.000001 0.000000 -0.000000 0.000001 0.000000 0.000000 -0.000001 0.000000 -0.000000 0.000001 0.000000 0.000000 0.000001 0.000000 0.000000 0.588668 -3.389096 -9.397046 33.654285 -10.661102 -51.658316 0.000245 -84.431793 0.000277 -90.948279 -15.737896 -20.090286 4.891658 7.994786 1.884000 10.475101 36.544309 -16.206451 -0.000003 0.000002 -0.000002 7.775690 6.956340 -86.152714 10.250108 6.003555 -119.372049 0.000004 0.000000 0.000002 6.554740 6.873504 -87.274299 9.404169 6.404044 -111.556032 -0.000000 -0.000003 0.000000 3.127827 6.869444 -89.819658 9.007624 6.545918 -108.040731 0.000001 0.000000 -0.000001 1.160404 7.315444 -94.148427 8.017700 2.700467 -99.510713 -0.000001 -0.000003 -0.000001 0.000000 0.000003 -0.000002 2.440059 11.258948 -4.869780 -25.738157 29.075180 -3.310714 0.000000 6.046706 0.000001 -14.675732 -1.510938 -10.596587 -0.188496 -1.802485 -2.082618 8.647154 -7.893993 -7.075690 -0.000001 -0.000000 0.000003 -0.045007 16.591247 1.173024 0.432913 -2.419464 20.286265 0.000001 0.000002 -0.000001 1.388717 9.778273 -8.026044 0.310556 -2.058673 17.155417 -0.000000 -0.000002 0.000002 -0.854742 -4.867764 -9.350617 0.723460 -3.093181 26.322496 -0.000004 -0.000000 -0.000000 5.069161 -12.750745 23.732575 0.307572 -2.049022 17.072080 0.000001 0.000001 -0.000005 0.000001 0.000000 -0.000000 -0.000001 0.000003 0.000000 -0.000001 -0.000001 0.000000 -0.000001 0.000003 -0.000001 -0.000001 0.000003 -0.000001 -0.000001 0.000003 0.000000 -0.000001 -0.000001 0.000000 -0.000001 0.000003 -0.000001 -0.000001 0.000003 -0.000001 -0.000001 0.000003 0.000000 -0.000001 -0.000001 0.000000 -0.000000 -0.000000 -0.000000 -0.000000 -0.000000 -0.000000 -0.000000 -0.000000 -0.000000 
-19.181877 56.881233 33.148289 -1.418373 32.515406 0.269865 0.000000 0.000000 -0.000000 -46.503766 2.843581 25.397509 70.698858 -8.433207 2.611355 -26.839585 -15.268195 -14.099326 0.000000 -0.000000 0.000000 -0.000001 0.000001 0.000001 -36.003242 -13.634369 -37.929919 72.176043 -3.553858 2.373343 -28.294880 -5.699973 18.595578 -0.000000 -0.000000 0.000000 -0.000001 0.000000 -0.000000 12.182753 13.020476 7.570721 3.311475 3.509193 2.280002 3.249529 3.573559 2.269934 10.505245 -10.569077 6.939578 -24.505426 -46.110867 -13.227365 -0.000001 0.000000 0.000000 -0.000001 0.000000 0.000000 -0.000001 0.000000 0.000000 -0.000001 0.000000 0.000000 -0.000001 -0.000000 -0.000000 -0.000001 0.000000 0.000000 -0.000001 -0.000000 -0.000000 -0.000001 0.000000 0.000000 -0.000001 0.000000 0.000000 0.587354 -3.232243 -9.111138 33.000117 -11.722352 -51.739164 0.000199 -84.753925 0.000206 -90.582659 -15.771822 -16.738384 4.891658 7.994783 1.884002 10.475101 36.544316 -16.206442 -0.000001 -0.000001 -0.000003 7.775687 6.956344 -86.152707 10.250108 6.003549 -119.372049 -0.000003 0.000000 -0.000002 6.554761 6.873492 -87.274279 9.404167 6.404046 -111.556032 0.000001 -0.000002 0.000000 3.127829 6.869441 -89.819651 9.007622 6.545919 -108.040731 0.000000 -0.000004 0.000000 1.160409 7.315441 -94.148420 8.017700 2.700467 -99.510720 -0.000002 -0.000001 0.000003 -0.000001 0.000001 -0.000001 2.469965 11.360113 -4.988325 -25.006491 27.195522 -3.992205 -0.000004 6.003312 -0.000001 -14.598003 -1.435680 -10.573867 -0.188485 -1.802486 -2.082614 8.647154 -7.893999 -7.075700 -0.000002 -0.000001 0.000001 -0.045000 16.591260 1.173024 0.432904 -2.419456 20.286261 0.000001 0.000000 0.000004 1.388725 9.778299 -8.026043 0.310562 -2.058705 17.155413 -0.000000 -0.000001 0.000001 -0.854746 -4.867740 -9.350608 0.723458 -3.093193 26.322504 -0.000001 -0.000001 -0.000001 5.069164 -12.750728 23.732578 0.307575 -2.049019 17.072083 -0.000001 -0.000001 0.000000 -0.000000 0.000000 0.000000 -0.000000 -0.000002 0.000001 -0.000000 -0.000000 -0.000000 -0.000000 -0.000002 0.000002 -0.000000 -0.000002 0.000002 -0.000000 -0.000002 0.000001 -0.000000 -0.000000 -0.000000 -0.000000 -0.000002 0.000002 -0.000000 -0.000002 0.000002 -0.000000 -0.000002 0.000001 -0.000000 -0.000000 -0.000000 0.000000 0.000000 -0.000000 0.000000 0.000000 -0.000000 0.000000 0.000000 -0.000000 
-19.455385 57.046989 33.120335 -1.323865 32.904945 0.466268 -0.000000 0.000002 0.000000 -46.122635 2.440459 24.599322 69.720945 -8.352555 2.846806 -26.318968 -14.776716 -14.563107 -0.000000 0.000000 0.000000 0.000001 -0.000001 -0.000004 -35.940906 -14.141859 -38.341670 71.590921 -2.937270 2.652538 -28.314725 -5.733052 18.669142 -0.000000 -0.000000 -0.000000 -0.000000 -0.000000 -0.000000 11.828167 13.459648 7.470755 3.209026 3.637041 2.250516 3.143374 3.701896 2.238428 10.534989 -10.513265 6.905198 -24.489831 -45.700331 -13.019310 0.000000 -0.000000 -0.000000 0.000000 -0.000000 -0.000000 0.000000 -0.000000 0.000000 0.000000 -0.000000 0.000000 -0.000001 -0.000000 -0.000000 0.000000 -0.000000 0.000000 -0.000001 -0.000000 -0.000000 0.000000 -0.000000 -0.000000 0.000000 -0.000000 -0.000000 0.586170 -3.122915 -8.910055 33.534450 -11.760158 -51.829958 0.000249 -86.572217 0.000275 -89.046126 -16.204422 -13.154067 4.891658 7.994782 1.884004 10.475097 36.544319 -16.206444 -0.000001 -0.000001 -0.000006 7.775688 6.956341 -86.152707 10.250109 6.003548 -119.372049 0.000003 0.000000 -0.000002 6.554746 6.873504 -87.274299 9.404166 6.404043 -111.556032 0.000001 -0.000002 0.000002 3.127826 6.869444 -89.819651 9.007623 6.545916 -108.040731 -0.000003 -0.000001 0.000002 1.160406 7.315442 -94.148420 8.017699 2.700467 -99.510720 -0.000000 0.000001 0.000001 0.000000 -0.000002 0.000002 2.485756 11.365489 -5.081861 -25.300802 25.781628 -3.625279 0.000001 6.199374 0.000004 -13.873837 -1.436670 -10.883723 -0.188491 -1.802481 -2.082612 8.647156 -7.894004 -7.075699 -0.000001 0.000000 0.000001 -0.045009 16.591257 1.173027 0.432918 -2.419457 20.286261 -0.000000 0.000000 0.000004 1.388714 9.778266 -8.026052 0.310559 -2.058688 17.155424 -0.000000 -0.000001 0.000001 -0.854741 -4.867752 -9.350612 0.723460 -3.093198 26.322492 -0.000002 -0.000000 -0.000001 5.069164 -12.750734 23.732583 0.307582 -2.049013 17.072077 0.000001 0.000000 -0.000001 -0.000000 -0.000000 0.000000 -0.000000 -0.000003 0.000000 0.000001 0.000002 -0.000000 -0.000000 -0.000003 0.000000 -0.000000 -0.000003 0.000000 -0.000000 -0.000003 0.000000 0.000001 0.000002 -0.000000 -0.000000 -0.000003 0.000000 -0.000000 -0.000003 0.000000 -0.000000 -0.000003 0.000000 0.000001 0.000002 -0.000000 -0.000000 0.000002 0.000000 -0.000000 0.000002 0.000000 -0.000000 0.000002 0.000000 
-19.657593 57.259735 33.080708 -1.358003 33.339892 0.645518 -0.000000 0.000001 0.000000 -45.776556 2.341728 24.028269 68.742398 -8.458949 3.041223 -25.656224 -14.332688 -14.723678 0.000000 0.000000 -0.000000 -0.000000 0.000002 -0.000002 -35.651661 -14.595050 -38.534008 70.922062 -2.748752 2.930832 -28.167075 -5.724202 18.749265 -0.000000 -0.000000 -0.000000 -0.000000 0.000001 -0.000001 11.610645 13.776780 7.448507 3.146982 3.727766 2.240971 3.078817 3.793069 2.227049 10.572361 -10.555197 6.780436 -24.721106 -45.796190 -13.129873 -0.000000 0.000000 -0.000000 -0.000000 0.000000 -0.000000 -0.000000 0.000000 -0.000000 -0.000000 0.000000 0.000000 -0.000000 0.000000 -0.000000 -0.000000 0.000000 0.000000 -0.000000 0.000000 -0.000000 -0.000000 0.000000 -0.000000 -0.000000 0.000000 -0.000000 0.584946 -3.025119 -8.721184 34.421162 -11.211569 -52.174849 -0.001387 -88.822526 -0.001365 -86.758886 -16.602096 -9.196138 4.891658 7.994784 1.884003 10.475097 36.544319 -16.206447 -0.000000 0.000001 -0.000001 7.775687 6.956344 -86.152707 10.250106 6.003553 -119.372049 -0.000001 -0.000000 0.000005 6.554750 6.873494 -87.274279 9.404168 6.404044 -111.556032 0.000005 -0.000002 0.000000 3.127826 6.869445 -89.819651 9.007629 6.545923 -108.040731 -0.000003 0.000002 -0.000000 1.160405 7.315442 -94.148420 8.017699 2.700468 -99.510720 -0.000005 0.000000 0.000003 0.000000 0.000000 -0.000003 2.492201 11.356250 -5.118675 -25.522001 24.740299 -3.210746 0.000001 6.262601 -0.000006 -13.449544 -1.374197 -11.270528 -0.188479 -1.802475 -2.082614 8.647153 -7.893986 -7.075690 0.000001 0.000000 0.000001 -0.045000 16.591269 1.173027 0.432916 -2.419458 20.286266 0.000002 0.000003 0.000002 1.388720 9.778309 -8.026037 0.310568 -2.058701 17.155422 0.000001 0.000000 -0.000001 -0.854740 -4.867746 -9.350619 0.723465 -3.093191 26.322490 -0.000001 -0.000000 -0.000001 5.069159 -12.750732 23.732578 0.307580 -2.048994 17.072087 -0.000002 0.000001 -0.000003 -0.000000 0.000000 -0.000000 0.000000 -0.000003 -0.000001 0.000000 -0.000000 0.000001 0.000000 -0.000003 0.000001 0.000000 -0.000003 0.000001 0.000000 -0.000003 -0.000001 0.000000 -0.000000 0.000001 0.000000 -0.000003 0.000001 0.000000 -0.000003 0.000001 0.000000 -0.000003 -0.000001 0.000000 -0.000000 0.000001 -0.000000 0.000001 0.000000 -0.000000 0.000001 0.000000 -0.000000 0.000001 0.000000 
